<svg xmlns="http://www.w3.org/2000/svg" viewBox="0 0 2048 2024" role="img" aria-hidden="true">




<path fill="#1451FF" opacity="1.000000" stroke="none" 
	d="
M2.853295,681.537842 
	C2.563548,667.000427 2.222032,652.888611 2.136060,638.775330 
	C2.018912,619.543884 2.009878,600.310730 2.128681,581.079407 
	C2.185354,571.905396 2.777950,562.735474 2.886400,553.560791 
	C3.023278,541.981323 2.913715,530.398865 2.848970,518.343933 
	C2.691063,500.674957 15.795703,492.109650 29.069717,491.918823 
	C77.738640,491.952911 125.520393,491.984772 173.302124,491.967102 
	C174.526764,491.966644 175.751205,491.422394 176.975723,491.131775 
	C184.046967,491.080780 191.118210,491.029785 198.876709,491.377045 
	C209.375458,491.782715 219.186935,491.790161 228.998413,491.797607 
	C234.349747,492.686554 239.978470,492.807343 244.996506,494.619324 
	C256.555603,498.793304 259.757385,509.015442 259.916229,519.793945 
	C260.578278,564.709290 260.867065,609.631714 261.026672,654.552429 
	C261.192902,701.338928 260.951599,748.127014 261.139038,794.913330 
	C261.173492,803.518066 261.918427,812.192017 263.215027,820.700012 
	C264.588562,829.712952 273.070984,839.146179 285.104492,839.893982 
	C295.887421,840.564087 306.692963,841.146851 317.492279,841.221069 
	C341.536377,841.386230 365.586517,841.430786 389.625793,841.025513 
	C396.137115,840.915771 402.921387,839.893555 409.046326,837.758301 
	C419.688812,834.048340 424.078979,824.669861 424.739014,814.393921 
	C425.964172,795.319824 426.369141,776.172058 426.476318,757.051392 
	C426.713501,714.733337 426.556335,672.412964 426.556641,630.093567 
	C426.557068,571.281921 426.890228,512.467590 426.414856,453.659760 
	C426.168304,423.160645 421.409546,393.211914 408.829559,365.115570 
	C400.921173,347.452850 389.074860,332.384430 373.249878,321.185303 
	C357.270477,309.876953 338.807220,304.026428 319.782410,299.864868 
	C300.458923,295.637970 280.881897,295.877625 261.286163,295.952850 
	C233.961700,296.057709 206.636490,295.972229 179.312134,296.091766 
	C150.389023,296.218292 121.462738,296.843323 92.545532,296.533112 
	C80.019318,296.398712 67.455490,294.890686 55.014103,293.221344 
	C44.436005,291.802002 38.829258,284.225372 37.185760,274.370819 
	C35.502331,264.276855 34.348518,253.967438 34.309559,243.747192 
	C34.076538,182.615509 34.161358,121.482155 34.300613,60.349735 
	C34.342953,41.761715 40.682137,25.889524 56.536392,15.092487 
	C64.769691,9.485463 74.327492,7.365830 85.129898,6.924775 
	C87.859413,6.960815 89.691818,6.995102 91.524231,6.995129 
	C256.134918,6.997571 420.745575,6.998385 585.356262,6.989026 
	C588.184387,6.988865 591.012512,6.863655 593.840637,6.796796 
	C601.210815,7.749799 608.917725,7.652246 615.878113,9.883495 
	C628.734192,14.004688 633.331543,25.521635 634.782654,37.353600 
	C636.837769,54.109688 636.876099,71.104584 638.140259,87.970123 
	C638.707397,95.536575 639.470337,103.213425 641.351929,110.529633 
	C645.004272,124.731300 652.984070,129.478012 667.232544,129.753632 
	C698.021179,130.349213 728.829834,130.081421 759.628723,129.899338 
	C774.938354,129.808838 784.774658,120.532974 785.932251,105.340775 
	C787.445190,85.485008 788.406189,65.585022 790.101807,45.746552 
	C790.671875,39.076649 792.162659,32.337177 794.279602,25.978075 
	C798.922546,12.031430 810.684998,8.461730 823.683594,7.234184 
	C826.164734,6.999883 828.668945,7.010575 832.076294,6.924550 
	C834.156250,6.958763 835.322449,6.992293 836.488586,6.992331 
	C962.300354,6.996487 1088.112183,6.998934 1213.923950,6.991296 
	C1215.585938,6.991195 1217.247925,6.861349 1218.909912,6.792065 
	C1224.164673,7.337234 1229.488037,7.520322 1234.660889,8.498490 
	C1247.819214,10.986673 1254.744751,20.572695 1256.742554,32.439514 
	C1259.367310,48.029762 1259.563110,64.017624 1261.110962,79.804344 
	C1262.173828,90.644112 1263.213013,101.538513 1265.280029,112.211479 
	C1267.026245,121.228012 1273.168945,126.986237 1282.413086,128.712906 
	C1286.294189,129.437851 1290.289429,129.868896 1294.234863,129.883102 
	C1323.041626,129.986847 1351.851685,130.171799 1380.654419,129.820175 
	C1389.011108,129.718155 1398.073608,128.691101 1403.292603,121.083527 
	C1406.599487,116.263145 1409.128174,110.115112 1409.667847,104.343864 
	C1411.101318,89.014893 1411.149902,73.561111 1411.971802,58.168854 
	C1412.668335,45.122437 1413.824951,32.140175 1420.379272,20.355225 
	C1423.547974,14.657662 1428.168701,10.766764 1434.525879,9.565339 
	C1441.012329,8.339516 1447.622437,7.767751 1455.088501,6.926467 
	C1457.164917,6.959668 1458.331055,6.990345 1459.497314,6.990365 
	C1625.466919,6.993319 1791.436401,6.994570 1957.406006,6.986601 
	C1958.901245,6.986529 1960.396484,6.861554 1961.891724,6.794894 
	C1969.526855,8.086226 1977.570312,8.264972 1984.716919,10.887469 
	C2002.705078,17.488379 2014.972900,37.401970 2015.056396,58.997421 
	C2015.031494,122.938820 2015.016846,185.970398 2015.013062,249.001968 
	C2015.013062,249.995148 2015.144165,250.988327 2015.213989,251.981506 
	C2013.622070,261.381561 2012.496094,270.892761 2010.289185,280.146088 
	C2008.561279,287.391388 2002.632690,291.382538 1995.690186,292.861481 
	C1988.612915,294.369141 1981.329712,295.411163 1974.105835,295.627991 
	C1957.855591,296.115692 1941.585693,295.936432 1925.324707,296.102020 
	C1922.018066,296.135681 1918.714111,296.681000 1915.409912,296.671143 
	C1872.124878,296.542267 1828.836060,296.652649 1785.556885,296.060089 
	C1763.584839,295.759277 1741.900879,296.808746 1720.464233,302.027802 
	C1678.939941,312.137482 1650.464966,336.700439 1636.015259,377.182678 
	C1628.565552,398.054169 1624.504883,419.544586 1623.759399,441.672455 
	C1623.473877,450.144531 1623.099487,458.620056 1623.096191,467.094147 
	C1623.052856,577.556763 1623.026245,688.019409 1623.173828,798.481873 
	C1623.182983,805.383545 1623.916748,812.479004 1625.634033,819.144104 
	C1629.501587,834.154968 1637.230347,839.912903 1653.554443,840.903625 
	C1660.361694,841.316772 1667.203247,841.245850 1674.029419,841.252563 
	C1699.736694,841.277893 1725.446777,841.459839 1751.149414,841.109497 
	C1759.469482,840.996155 1768.127197,841.185547 1775.614502,836.247070 
	C1781.773560,832.184692 1785.450562,826.584045 1786.261719,819.178406 
	C1786.820923,814.072571 1787.426636,808.971924 1788.390015,803.147095 
	C1788.845459,801.099365 1788.989746,799.773621 1788.989868,798.447815 
	C1789.001221,711.284729 1789.001831,624.121582 1788.993774,536.958496 
	C1788.993652,535.629211 1788.874512,534.299988 1788.810913,532.970703 
	C1789.521606,525.937622 1789.625122,518.776550 1791.073975,511.898956 
	C1793.783569,499.036621 1800.469604,493.545807 1815.626099,491.964355 
	C1817.102417,491.810333 1818.607788,491.934998 1821.011719,491.937683 
	C1865.552490,491.964447 1909.181274,491.991913 1952.810181,491.966492 
	C1954.200684,491.965668 1955.590820,491.421204 1956.981201,491.130188 
	C1960.488037,491.071198 1963.994873,490.965759 1967.501709,490.961243 
	C1982.787109,490.941528 1998.075317,490.786469 2013.356567,491.039246 
	C2018.726440,491.128082 2024.333130,491.443878 2029.388916,493.050018 
	C2041.367188,496.855347 2046.820557,505.858185 2047.079712,519.101318 
	C2047.048096,562.956055 2047.009766,605.922241 2047.011230,648.888428 
	C2047.011475,658.543335 2047.150635,668.198181 2047.225830,677.853088 
	C2047.498047,690.922852 2042.619019,701.827209 2033.927734,711.475464 
	C2025.026367,721.356750 2021.099487,733.830505 2019.094604,746.512634 
	C2017.086060,759.218689 2016.959717,772.222290 2015.618896,785.835815 
	C2015.153320,788.401917 2015.010010,790.227722 2015.009888,792.053467 
	C2014.999756,1045.359253 2014.999634,1298.664917 2015.009033,1551.970703 
	C2015.009155,1554.299194 2015.145142,1556.627563 2015.217651,1558.956055 
	C2014.036377,1566.445679 2013.823242,1574.257935 2011.458252,1581.353027 
	C2007.420044,1593.468140 1997.292603,1598.147705 1985.244629,1598.974609 
	C1976.634644,1599.565552 1967.993896,1599.971558 1959.365723,1599.989136 
	C1911.216675,1600.087646 1863.066406,1600.185791 1814.918335,1599.941528 
	C1803.504028,1599.883667 1791.969727,1599.319824 1780.715576,1597.554810 
	C1764.344604,1594.987427 1756.598267,1583.821777 1755.073364,1567.922729 
	C1754.328613,1560.156494 1753.438721,1552.358765 1753.429688,1544.574219 
	C1753.346436,1472.258057 1753.490723,1399.941772 1753.456787,1327.625488 
	C1753.445068,1302.640625 1753.246216,1277.654175 1752.863770,1252.672485 
	C1752.739624,1244.568237 1751.683594,1236.395996 1747.024902,1229.447510 
	C1740.944580,1220.378540 1731.337646,1217.135864 1721.225708,1216.879639 
	C1700.077515,1216.343262 1678.896240,1216.400269 1657.746460,1216.927246 
	C1646.908447,1217.197266 1636.219971,1220.095825 1630.342773,1230.244507 
	C1627.063843,1235.906738 1624.541748,1242.845215 1624.324707,1249.297729 
	C1623.373291,1277.561035 1623.382812,1305.856934 1623.060059,1334.141235 
	C1623.006592,1338.822754 1623.034424,1343.505249 1622.625854,1348.878174 
	C1622.153564,1363.649658 1622.067261,1377.730347 1622.044067,1391.811279 
	C1622.042847,1392.531372 1622.583374,1393.252319 1622.871826,1393.972900 
	C1622.924805,1417.778809 1622.996826,1441.584595 1623.026001,1465.390503 
	C1623.059570,1492.866333 1622.745483,1520.347656 1623.234985,1547.815063 
	C1623.407837,1557.514038 1625.685791,1567.160156 1626.683716,1576.863159 
	C1628.629883,1595.785400 1633.947021,1613.783813 1641.938965,1630.916382 
	C1654.898560,1658.697754 1670.781372,1684.592896 1693.916382,1705.253174 
	C1709.660034,1719.312866 1726.918457,1731.335327 1746.167847,1740.112305 
	C1758.606689,1745.783813 1771.187256,1751.452271 1784.223755,1755.411377 
	C1795.511963,1758.839355 1807.453491,1760.776123 1819.241943,1761.783569 
	C1873.387695,1766.410889 1927.675537,1762.819214 1981.888062,1764.015137 
	C1989.074951,1764.173706 1996.327393,1764.711670 2002.890747,1768.597168 
	C2010.454834,1773.075317 2012.274414,1780.659058 2013.837036,1788.231689 
	C2014.833496,1793.060547 2014.707520,1798.121216 2015.068604,1803.991699 
	C2015.034912,1811.713013 2014.920898,1818.522095 2015.039551,1825.327026 
	C2015.101562,1828.881836 2015.572876,1832.429443 2015.859375,1835.980347 
	C2015.907349,1836.435547 2015.955444,1836.890625 2015.616943,1837.959961 
	C2015.153809,1844.017456 2014.945068,1849.462891 2015.042847,1854.903076 
	C2015.121338,1859.264893 2015.571411,1863.620239 2015.856689,1867.978394 
	C2015.905151,1868.434082 2015.953613,1868.889893 2015.616211,1869.960938 
	C2015.225464,1903.701660 2015.220581,1936.827148 2015.215820,1969.952515 
	C2013.847656,1988.791626 2006.736206,2004.265015 1989.053101,2013.079712 
	C1979.954590,2017.615112 1970.222046,2020.085327 1959.915283,2020.083618 
	C1804.437988,2020.057617 1648.960815,2020.045898 1493.483521,2020.079102 
	C1392.866943,2020.100586 1292.250244,2020.247437 1191.633667,2020.250854 
	C1100.179565,2020.253906 1008.725342,2020.091919 917.271179,2020.090088 
	C831.859497,2020.088501 746.447876,2020.224854 661.036194,2020.252930 
	C628.624695,2020.263672 596.213135,2020.092773 563.801636,2020.088135 
	C405.928619,2020.065430 248.055588,2020.057129 90.182564,2020.092529 
	C77.141685,2020.095459 65.123863,2016.308472 54.472569,2009.316528 
	C41.646858,2000.897339 35.560619,1987.564331 35.230293,1972.864136 
	C34.280468,1930.595459 34.316544,1888.302734 34.188057,1846.018677 
	C34.138042,1829.558472 34.449013,1813.087280 35.086060,1796.640259 
	C35.308273,1790.902954 36.566334,1785.099487 38.128365,1779.544800 
	C40.631599,1770.643188 47.718090,1766.698242 56.189991,1765.208862 
	C61.228386,1764.322998 66.422867,1763.998169 71.548439,1763.986694 
	C113.875381,1763.892212 156.204926,1764.188599 198.528717,1763.810425 
	C217.399170,1763.641846 236.272202,1762.650146 254.836166,1758.384399 
	C293.017242,1749.611206 326.159271,1731.368530 355.249969,1705.472778 
	C382.305511,1681.388794 400.971588,1651.468384 413.441223,1617.852783 
	C420.111542,1599.871094 424.105499,1580.860474 424.820282,1561.574829 
	C425.865112,1533.383789 426.377838,1505.162109 426.507202,1476.950562 
	C426.757538,1422.347656 426.582916,1367.742554 426.582794,1313.138428 
	C426.582733,1296.671631 426.987030,1280.190552 426.411743,1263.743774 
	C426.095917,1254.713989 424.743774,1245.601807 422.742432,1236.780029 
	C420.285248,1225.948730 412.293335,1220.143677 401.722229,1218.183716 
	C396.207794,1217.161255 390.504242,1216.816162 384.881958,1216.777832 
	C361.386444,1216.617798 337.888824,1216.595215 314.393158,1216.730591 
	C306.614349,1216.775391 298.876923,1217.567505 291.910370,1221.661255 
	C280.141113,1228.577026 278.393494,1240.036865 277.616150,1252.851807 
	C277.149719,1255.398193 277.011597,1257.224487 277.011383,1259.050781 
	C277.000824,1348.375732 276.997192,1437.700684 277.009888,1527.025635 
	C277.011108,1535.687988 277.121124,1544.350220 277.180603,1553.012573 
	C276.215149,1561.058960 275.713013,1569.195068 274.175415,1577.130615 
	C271.882202,1588.966187 262.779449,1594.626099 252.208572,1596.775391 
	C241.569016,1598.938599 230.517670,1599.842407 219.636810,1599.920898 
	C171.983963,1600.264771 124.326759,1600.249634 76.673134,1599.993042 
	C68.982925,1599.951660 61.091007,1598.807373 53.670349,1596.785400 
	C43.850552,1594.109741 38.812916,1585.899658 37.279575,1576.594849 
	C35.344742,1564.853760 34.323727,1552.852051 34.175594,1540.947144 
	C33.755100,1507.153564 33.935829,1473.351807 33.960346,1439.553345 
	C33.992123,1395.753784 34.163841,1351.954102 34.161285,1308.154541 
	C34.158390,1258.534912 33.980659,1208.915283 33.969559,1159.295654 
	C33.959686,1115.173218 34.129002,1071.050659 34.120903,1026.928223 
	C34.106350,947.638184 34.167446,868.347412 33.825352,789.058655 
	C33.762547,774.501770 32.797649,759.826111 30.683119,745.435425 
	C28.597750,731.243164 22.903900,718.141968 12.998714,707.220642 
	C6.545225,700.105225 3.312423,691.565674 2.853295,681.537842 
M628.738647,855.218140 
	C616.769409,866.700806 604.461121,877.854858 592.925476,889.757751 
	C581.205872,901.850281 569.611145,914.173828 559.134644,927.330261 
	C548.454102,940.742676 538.809143,955.036194 529.433350,969.415039 
	C519.972778,983.923950 511.359131,998.987366 502.458618,1013.858215 
	C499.237152,1019.240723 498.983978,1025.006714 501.944885,1030.487671 
	C508.550201,1042.714600 514.760742,1055.234375 522.377319,1066.816162 
	C533.265564,1083.372559 544.644653,1099.691284 556.963257,1115.198730 
	C570.139465,1131.785522 584.285339,1147.651245 598.713318,1163.176392 
	C607.498413,1172.629639 617.431641,1181.056030 627.190369,1189.551880 
	C635.796265,1197.044312 644.564270,1204.425659 653.817444,1211.082031 
	C668.283569,1221.488281 683.009888,1231.569336 698.023926,1241.165649 
	C709.698608,1248.627441 721.785461,1255.509644 734.049255,1261.965332 
	C745.111328,1267.788086 756.425720,1273.282471 768.046997,1277.860596 
	C791.793457,1287.215454 815.718018,1296.148071 839.779175,1304.661133 
	C850.602783,1308.490356 861.847778,1311.252197 873.052979,1313.843872 
	C883.616760,1316.287109 894.375061,1317.894531 905.056030,1319.824097 
	C911.174072,1320.929565 917.291016,1322.069336 923.445435,1322.929321 
	C925.500977,1323.216431 927.671021,1322.684204 929.788757,1322.526489 
	C929.852478,1321.980713 929.916199,1321.434814 929.979919,1320.889038 
	C928.309082,1320.074829 926.626526,1319.283691 924.969238,1318.442871 
	C912.770630,1312.253906 900.067566,1306.869385 888.517151,1299.643066 
	C875.532898,1291.519531 863.025391,1282.395142 851.360413,1272.471924 
	C840.627136,1263.341431 830.639893,1253.121338 821.525269,1242.363403 
	C813.234436,1232.577881 806.104797,1221.707153 799.296326,1210.795044 
	C792.164429,1199.364258 784.965637,1187.765503 779.711792,1175.424561 
	C772.690613,1158.932373 767.428955,1141.684082 761.568848,1124.706177 
	C754.763916,1104.991211 751.223633,1084.481079 749.173523,1063.886353 
	C747.467834,1046.751709 748.127136,1029.384155 747.683228,1012.121033 
	C747.161926,991.850098 750.510620,972.030090 754.575684,952.294189 
	C760.166687,925.149475 767.281189,898.554443 779.057251,873.233215 
	C787.833862,854.361633 798.571350,836.769653 809.940735,819.470154 
	C822.499207,800.361206 838.534180,784.464844 855.873901,769.753540 
	C876.330750,752.397583 898.697388,738.224731 923.716125,728.350159 
	C926.400757,727.290649 928.883362,725.719177 931.459656,724.385193 
	C931.244812,723.876343 931.030029,723.367554 930.815186,722.858704 
	C928.393677,723.064392 925.938354,723.080688 923.556335,723.506897 
	C909.816223,725.964722 896.022156,728.188660 882.384155,731.130676 
	C867.570862,734.326233 852.768311,737.737244 838.221008,741.951599 
	C824.793213,745.841553 811.526184,750.455322 798.519653,755.589417 
	C781.041504,762.488525 763.500061,769.424805 746.690369,777.765076 
	C729.278320,786.404175 712.596558,796.550293 695.817261,806.414795 
	C687.591858,811.250427 679.651550,816.645996 671.966187,822.309204 
	C657.578247,832.911682 643.469910,843.893738 628.738647,855.218140 
M1448.029663,868.459045 
	C1436.823608,858.926697 1425.929077,848.993652 1414.324585,839.974060 
	C1402.592407,830.855347 1390.017334,822.830261 1378.060181,813.989563 
	C1357.010132,798.425903 1333.875854,786.538208 1310.388184,775.306946 
	C1298.482544,769.613892 1286.356445,764.310242 1274.059570,759.525574 
	C1259.341187,753.798828 1244.431274,748.515991 1229.418213,743.611267 
	C1219.093994,740.238464 1208.494873,737.666443 1197.942139,735.044495 
	C1185.533813,731.961426 1173.115112,728.832703 1160.564819,726.436646 
	C1150.477539,724.510620 1140.187500,723.646790 1129.987427,722.311646 
	C1130.583984,724.160339 1131.631714,725.229675 1132.904175,725.764221 
	C1138.502075,728.115601 1144.359863,729.926392 1149.757935,732.656128 
	C1157.849976,736.748230 1165.711670,741.316772 1173.535645,745.913513 
	C1189.407349,755.238464 1204.426392,765.777710 1217.408691,778.907654 
	C1224.988281,786.573364 1232.075806,794.726257 1239.368774,802.674500 
	C1253.009399,817.540894 1263.430054,834.644226 1272.917725,852.272034 
	C1278.939819,863.460693 1284.615479,874.967102 1289.044800,886.853333 
	C1297.323975,909.070068 1305.387817,931.431580 1308.056274,955.266602 
	C1310.203613,974.446594 1313.308105,993.550232 1314.630005,1012.781128 
	C1315.525391,1025.807129 1314.532715,1039.030396 1313.535400,1052.100708 
	C1312.467407,1066.098022 1311.434692,1080.239014 1308.516602,1093.918579 
	C1304.778809,1111.441650 1299.506836,1128.667725 1294.288940,1145.837280 
	C1287.709961,1167.485229 1277.074829,1187.349365 1265.738159,1206.801025 
	C1253.168457,1228.368652 1237.631104,1247.533813 1219.581299,1264.888062 
	C1197.993652,1285.643555 1173.956665,1302.412476 1146.430298,1314.207397 
	C1140.611694,1316.700684 1134.934326,1319.523682 1129.191772,1322.194824 
	C1130.976929,1323.548950 1132.781128,1324.074707 1134.478394,1323.837036 
	C1143.232666,1322.610840 1151.997681,1321.393799 1160.686279,1319.782227 
	C1171.028198,1317.863892 1181.346680,1315.760620 1191.578857,1313.330933 
	C1198.567871,1311.671387 1205.393311,1309.321533 1212.288818,1307.270142 
	C1225.216675,1303.424194 1238.372559,1300.199585 1251.011841,1295.565796 
	C1267.825806,1289.401367 1284.442505,1282.592041 1300.761108,1275.213135 
	C1316.088135,1268.282593 1331.328125,1260.958496 1345.858154,1252.518799 
	C1362.683716,1242.745605 1379.184692,1232.243652 1394.920044,1220.810547 
	C1411.361206,1208.864624 1426.992798,1195.750854 1442.494995,1182.578979 
	C1465.048218,1163.415894 1484.390625,1141.050049 1503.602417,1118.676758 
	C1512.073120,1108.812134 1519.144897,1097.715088 1526.518799,1086.949585 
	C1532.761719,1077.835327 1538.690063,1068.493408 1544.450439,1059.064453 
	C1549.331909,1051.074341 1554.006104,1042.936279 1558.320679,1034.629272 
	C1560.812622,1029.831543 1564.460938,1024.692627 1561.404907,1018.984558 
	C1553.860718,1004.892761 1546.554321,990.612915 1538.014526,977.129211 
	C1525.588745,957.509460 1513.260864,937.730835 1497.181396,920.707336 
	C1480.925537,903.497009 1464.740967,886.219299 1448.029663,868.459045 
z"/>
<path fill="#1AEDF9" opacity="1.000000" stroke="none" 
	d="
M593.543701,6.532743 
	C591.012512,6.863655 588.184387,6.988865 585.356262,6.989026 
	C420.745575,6.998385 256.134918,6.997571 91.524231,6.995129 
	C89.691818,6.995102 87.859413,6.960815 85.578712,6.866185 
	C87.053337,6.520818 88.976196,6.016593 90.899162,6.016215 
	C256.521301,5.983650 422.143463,5.989120 587.765625,6.005018 
	C589.592712,6.005194 591.419739,6.177001 593.543701,6.532743 
z"/>
<path fill="#1AEDF9" opacity="1.000000" stroke="none" 
	d="
M1961.598633,6.517200 
	C1960.396484,6.861554 1958.901245,6.986529 1957.406006,6.986601 
	C1791.436401,6.994570 1625.466919,6.993319 1459.497314,6.990365 
	C1458.331055,6.990345 1457.164917,6.959668 1455.546875,6.867395 
	C1457.515503,6.514839 1459.935913,5.996463 1462.356201,5.996039 
	C1626.511353,5.967310 1790.666504,5.979256 1954.821655,5.999907 
	C1956.982910,6.000179 1959.144287,6.156188 1961.598633,6.517200 
z"/>
<path fill="#18EDF9" opacity="1.000000" stroke="none" 
	d="
M1218.619263,6.508276 
	C1217.247925,6.861349 1215.585938,6.991195 1213.923950,6.991296 
	C1088.112183,6.998934 962.300354,6.996487 836.488586,6.992331 
	C835.322449,6.992293 834.156250,6.958763 832.537354,6.864640 
	C833.832458,6.521769 835.580322,6.022291 837.328247,6.021683 
	C962.502502,5.978198 1087.676758,5.973322 1212.850952,5.978074 
	C1214.676880,5.978144 1216.502686,6.138788 1218.619263,6.508276 
z"/>
<path fill="#1BEDF7" opacity="1.000000" stroke="none" 
	d="
M1788.489502,533.245239 
	C1788.874512,534.299988 1788.993652,535.629211 1788.993774,536.958496 
	C1789.001831,624.121582 1789.001221,711.284729 1788.989868,798.447815 
	C1788.989746,799.773621 1788.845459,801.099365 1788.461792,802.710327 
	C1788.095947,786.031494 1787.988892,769.067627 1787.985596,752.103699 
	C1787.971436,681.401062 1787.987183,610.698486 1788.001587,539.995850 
	C1788.001953,537.837158 1788.110107,535.678467 1788.489502,533.245239 
z"/>
<path fill="#10F3F6" opacity="1.000000" stroke="none" 
	d="
M2015.525879,251.704346 
	C2015.144165,250.988327 2015.013062,249.995148 2015.013062,249.001968 
	C2015.016846,185.970398 2015.031494,122.938820 2015.114746,59.443607 
	C2015.469727,60.198025 2016.003174,61.415947 2016.003784,62.634163 
	C2016.038086,124.903824 2016.027710,187.173523 2016.013062,249.443222 
	C2016.012939,250.104568 2015.898682,250.765869 2015.525879,251.704346 
z"/>
<path fill="#0EF4F9" opacity="1.000000" stroke="none" 
	d="
M2047.471802,677.667603 
	C2047.150635,668.198181 2047.011475,658.543335 2047.011230,648.888428 
	C2047.009766,605.922241 2047.048096,562.956055 2047.147339,519.537109 
	C2047.222656,519.084290 2047.520752,519.058533 2047.670166,519.064453 
	C2047.881592,559.777649 2047.950073,600.484863 2048.000732,641.192078 
	C2048.014404,652.158447 2047.973511,663.124878 2048.030518,674.557373 
	C2047.974731,675.843018 2047.846191,676.662598 2047.471802,677.667603 
z"/>
<path fill="#06F9FC" opacity="1.000000" stroke="none" 
	d="
M176.514038,491.057434 
	C175.751205,491.422394 174.526764,491.966644 173.302124,491.967102 
	C125.520393,491.984772 77.738640,491.952911 29.499084,491.851105 
	C30.613010,491.506744 32.184559,491.006042 33.756504,491.004791 
	C81.188431,490.967285 128.620392,490.979034 176.514038,491.057434 
z"/>
<path fill="#06F9FC" opacity="1.000000" stroke="none" 
	d="
M1956.519043,491.055786 
	C1955.590820,491.421204 1954.200684,491.965668 1952.810181,491.966492 
	C1909.181274,491.991913 1865.552490,491.964447 1821.461426,491.873291 
	C1822.390747,491.527466 1823.781982,491.015137 1825.173584,491.013824 
	C1868.801270,490.972412 1912.429077,490.980682 1956.519043,491.055786 
z"/>
<path fill="#06F9FC" opacity="1.000000" stroke="none" 
	d="
M228.731049,491.472107 
	C219.186935,491.790161 209.375458,491.782715 199.294357,491.453552 
	C208.837723,491.136749 218.650696,491.141693 228.731049,491.472107 
z"/>
<path fill="#0FF3F6" opacity="1.000000" stroke="none" 
	d="
M2015.521118,1558.675049 
	C2015.145142,1556.627563 2015.009155,1554.299194 2015.009033,1551.970703 
	C2014.999634,1298.664917 2014.999756,1045.359253 2015.009888,792.053467 
	C2015.010010,790.227722 2015.153320,788.401917 2015.543335,786.299255 
	C2015.918945,791.350281 2016.034790,796.678162 2016.034912,802.006104 
	C2016.041870,1051.307007 2016.039185,1300.607788 2016.027710,1549.908691 
	C2016.027588,1552.737183 2015.895264,1555.565674 2015.521118,1558.675049 
z"/>
<path fill="#05FBFC" opacity="1.000000" stroke="none" 
	d="
M277.518494,1552.754639 
	C277.121124,1544.350220 277.011108,1535.687988 277.009888,1527.025635 
	C276.997192,1437.700684 277.000824,1348.375732 277.011383,1259.050781 
	C277.011597,1257.224487 277.149719,1255.398193 277.539764,1253.296875 
	C277.914124,1282.115723 278.011230,1311.209839 278.022461,1340.303833 
	C278.049164,1409.374268 278.036469,1478.444580 278.030060,1547.515015 
	C278.029907,1549.175537 277.916809,1550.836182 277.518494,1552.754639 
z"/>
<path fill="#0FF3F6" opacity="1.000000" stroke="none" 
	d="
M2015.517944,1969.670898 
	C2015.220581,1936.827148 2015.225464,1903.701660 2015.543701,1870.298950 
	C2015.844727,1903.144165 2015.832397,1936.266602 2015.517944,1969.670898 
z"/>
<path fill="#05FBFC" opacity="1.000000" stroke="none" 
	d="
M1622.946045,1393.511230 
	C1622.583374,1393.252319 1622.042847,1392.531372 1622.044067,1391.811279 
	C1622.067261,1377.730347 1622.153564,1363.649658 1622.548218,1349.299561 
	C1622.919800,1363.703491 1622.970093,1378.376587 1622.946045,1393.511230 
z"/>
<path fill="#10F3F6" opacity="1.000000" stroke="none" 
	d="
M2015.939941,1835.519409 
	C2015.572876,1832.429443 2015.101562,1828.881836 2015.039551,1825.327026 
	C2014.920898,1818.522095 2015.034912,1811.713013 2015.129395,1804.443237 
	C2015.487305,1808.193237 2015.921753,1812.402466 2016.012573,1816.618896 
	C2016.144897,1822.762573 2016.030029,1828.911743 2015.939941,1835.519409 
z"/>
<path fill="#0FF3F6" opacity="1.000000" stroke="none" 
	d="
M2015.936890,1867.517578 
	C2015.571411,1863.620239 2015.121338,1859.264893 2015.042847,1854.903076 
	C2014.945068,1849.462891 2015.153809,1844.017456 2015.544434,1838.297363 
	C2015.911377,1847.699341 2015.964233,1857.377930 2015.936890,1867.517578 
z"/>
<path fill="#FEFFFF" opacity="1.000000" stroke="none" 
	d="
M628.991943,854.968018 
	C643.469910,843.893738 657.578247,832.911682 671.966187,822.309204 
	C679.651550,816.645996 687.591858,811.250427 695.817261,806.414795 
	C712.596558,796.550293 729.278320,786.404175 746.690369,777.765076 
	C763.500061,769.424805 781.041504,762.488525 798.519653,755.589417 
	C811.526184,750.455322 824.793213,745.841553 838.221008,741.951599 
	C852.768311,737.737244 867.570862,734.326233 882.384155,731.130676 
	C896.022156,728.188660 909.816223,725.964722 923.556335,723.506897 
	C925.938354,723.080688 928.393677,723.064392 930.815186,722.858704 
	C931.030029,723.367554 931.244812,723.876343 931.459656,724.385193 
	C928.883362,725.719177 926.400757,727.290649 923.716125,728.350159 
	C898.697388,738.224731 876.330750,752.397583 855.873901,769.753540 
	C838.534180,784.464844 822.499207,800.361206 809.940735,819.470154 
	C798.571350,836.769653 787.833862,854.361633 779.057251,873.233215 
	C767.281189,898.554443 760.166687,925.149475 754.575684,952.294189 
	C750.510620,972.030090 747.161926,991.850098 747.683228,1012.121033 
	C748.127136,1029.384155 747.467834,1046.751709 749.173523,1063.886353 
	C751.223633,1084.481079 754.763916,1104.991211 761.568848,1124.706177 
	C767.428955,1141.684082 772.690613,1158.932373 779.711792,1175.424561 
	C784.965637,1187.765503 792.164429,1199.364258 799.296326,1210.795044 
	C806.104797,1221.707153 813.234436,1232.577881 821.525269,1242.363403 
	C830.639893,1253.121338 840.627136,1263.341431 851.360413,1272.471924 
	C863.025391,1282.395142 875.532898,1291.519531 888.517151,1299.643066 
	C900.067566,1306.869385 912.770630,1312.253906 924.969238,1318.442871 
	C926.626526,1319.283691 928.309082,1320.074829 929.979919,1320.889038 
	C929.916199,1321.434814 929.852478,1321.980713 929.788757,1322.526489 
	C927.671021,1322.684204 925.500977,1323.216431 923.445435,1322.929321 
	C917.291016,1322.069336 911.174072,1320.929565 905.056030,1319.824097 
	C894.375061,1317.894531 883.616760,1316.287109 873.052979,1313.843872 
	C861.847778,1311.252197 850.602783,1308.490356 839.779175,1304.661133 
	C815.718018,1296.148071 791.793457,1287.215454 768.046997,1277.860596 
	C756.425720,1273.282471 745.111328,1267.788086 734.049255,1261.965332 
	C721.785461,1255.509644 709.698608,1248.627441 698.023926,1241.165649 
	C683.009888,1231.569336 668.283569,1221.488281 653.817444,1211.082031 
	C644.564270,1204.425659 635.796265,1197.044312 627.190369,1189.551880 
	C617.431641,1181.056030 607.498413,1172.629639 598.713318,1163.176392 
	C584.285339,1147.651245 570.139465,1131.785522 556.963257,1115.198730 
	C544.644653,1099.691284 533.265564,1083.372559 522.377319,1066.816162 
	C514.760742,1055.234375 508.550201,1042.714600 501.944885,1030.487671 
	C498.983978,1025.006714 499.237152,1019.240723 502.458618,1013.858215 
	C511.359131,998.987366 519.972778,983.923950 529.433350,969.415039 
	C538.809143,955.036194 548.454102,940.742676 559.134644,927.330261 
	C569.611145,914.173828 581.205872,901.850281 592.925476,889.757751 
	C604.461121,877.854858 616.769409,866.700806 628.991943,854.968018 
z"/>
<path fill="#FEFFFF" opacity="1.000000" stroke="none" 
	d="
M1448.277344,868.715149 
	C1464.740967,886.219299 1480.925537,903.497009 1497.181396,920.707336 
	C1513.260864,937.730835 1525.588745,957.509460 1538.014526,977.129211 
	C1546.554321,990.612915 1553.860718,1004.892761 1561.404907,1018.984558 
	C1564.460938,1024.692627 1560.812622,1029.831543 1558.320679,1034.629272 
	C1554.006104,1042.936279 1549.331909,1051.074341 1544.450439,1059.064453 
	C1538.690063,1068.493408 1532.761719,1077.835327 1526.518799,1086.949585 
	C1519.144897,1097.715088 1512.073120,1108.812134 1503.602417,1118.676758 
	C1484.390625,1141.050049 1465.048218,1163.415894 1442.494995,1182.578979 
	C1426.992798,1195.750854 1411.361206,1208.864624 1394.920044,1220.810547 
	C1379.184692,1232.243652 1362.683716,1242.745605 1345.858154,1252.518799 
	C1331.328125,1260.958496 1316.088135,1268.282593 1300.761108,1275.213135 
	C1284.442505,1282.592041 1267.825806,1289.401367 1251.011841,1295.565796 
	C1238.372559,1300.199585 1225.216675,1303.424194 1212.288818,1307.270142 
	C1205.393311,1309.321533 1198.567871,1311.671387 1191.578857,1313.330933 
	C1181.346680,1315.760620 1171.028198,1317.863892 1160.686279,1319.782227 
	C1151.997681,1321.393799 1143.232666,1322.610840 1134.478394,1323.837036 
	C1132.781128,1324.074707 1130.976929,1323.548950 1129.191772,1322.194824 
	C1134.934326,1319.523682 1140.611694,1316.700684 1146.430298,1314.207397 
	C1173.956665,1302.412476 1197.993652,1285.643555 1219.581299,1264.888062 
	C1237.631104,1247.533813 1253.168457,1228.368652 1265.738159,1206.801025 
	C1277.074829,1187.349365 1287.709961,1167.485229 1294.288940,1145.837280 
	C1299.506836,1128.667725 1304.778809,1111.441650 1308.516602,1093.918579 
	C1311.434692,1080.239014 1312.467407,1066.098022 1313.535400,1052.100708 
	C1314.532715,1039.030396 1315.525391,1025.807129 1314.630005,1012.781128 
	C1313.308105,993.550232 1310.203613,974.446594 1308.056274,955.266602 
	C1305.387817,931.431580 1297.323975,909.070068 1289.044800,886.853333 
	C1284.615479,874.967102 1278.939819,863.460693 1272.917725,852.272034 
	C1263.430054,834.644226 1253.009399,817.540894 1239.368774,802.674500 
	C1232.075806,794.726257 1224.988281,786.573364 1217.408691,778.907654 
	C1204.426392,765.777710 1189.407349,755.238464 1173.535645,745.913513 
	C1165.711670,741.316772 1157.849976,736.748230 1149.757935,732.656128 
	C1144.359863,729.926392 1138.502075,728.115601 1132.904175,725.764221 
	C1131.631714,725.229675 1130.583984,724.160339 1129.987427,722.311646 
	C1140.187500,723.646790 1150.477539,724.510620 1160.564819,726.436646 
	C1173.115112,728.832703 1185.533813,731.961426 1197.942139,735.044495 
	C1208.494873,737.666443 1219.093994,740.238464 1229.418213,743.611267 
	C1244.431274,748.515991 1259.341187,753.798828 1274.059570,759.525574 
	C1286.356445,764.310242 1298.482544,769.613892 1310.388184,775.306946 
	C1333.875854,786.538208 1357.010132,798.425903 1378.060181,813.989563 
	C1390.017334,822.830261 1402.592407,830.855347 1414.324585,839.974060 
	C1425.929077,848.993652 1436.823608,858.926697 1448.277344,868.715149 
z"/>
</svg>