<svg xmlns="http://www.w3.org/2000/svg" viewBox="0 0 480 520" fill="none">
  <rect x="24" y="24" width="432" height="472" rx="24" fill="#1a1922" stroke="#2a2938" stroke-width="2"/>
  <!-- UI chrome top -->
  <rect x="48" y="48" width="120" height="12" rx="6" fill="#305CDE" opacity="0.9" class="hero-ui-bar"/>
  <circle cx="400" cy="54" r="16" fill="#22212c" stroke="#6E8DE8" stroke-width="2"/>
  <circle cx="400" cy="54" r="6" fill="#6E8DE8"/>
  <rect x="48" y="76" width="200" height="28" rx="14" fill="#22212c" stroke="#2a2938" stroke-width="1.5"/>
  <rect x="60" y="84" width="80" height="12" rx="6" fill="#3a3950"/>
  <!-- Designer figure -->
  <g class="hero-figure">
    <ellipse cx="240" cy="420" rx="100" ry="16" fill="#121117" opacity="0.6"/>
    <path d="M180 400c0-60 26-100 60-100s60 40 60 100" fill="#305CDE" opacity="0.25"/>
    <circle cx="240" cy="220" r="52" fill="#6E8DE8"/>
    <circle cx="240" cy="220" r="44" fill="#305CDE"/>
    <rect x="196" y="268" width="88" height="120" rx="20" fill="#305CDE"/>
    <rect x="168" y="300" width="36" height="88" rx="12" fill="#6E8DE8" transform="rotate(-12 186 344)"/>
    <rect x="276" y="300" width="36" height="88" rx="12" fill="#6E8DE8" transform="rotate(12 294 344)"/>
    <!-- Stylus toward target -->
    <line x1="300" y1="320" x2="380" y2="180" stroke="#f5f5f5" stroke-width="4" stroke-linecap="round"/>
    <circle cx="388" cy="168" r="28" fill="none" stroke="#305CDE" stroke-width="4"/>
    <circle cx="388" cy="168" r="12" fill="#305CDE"/>
    <line x1="388" y1="140" x2="388" y2="196" stroke="#6E8DE8" stroke-width="2"/>
    <line x1="360" y1="168" x2="416" y2="168" stroke="#6E8DE8" stroke-width="2"/>
  </g>
  <!-- Bottom UI bars -->
  <rect x="48" y="440" width="384" height="8" rx="4" fill="#22212c"/>
  <rect x="48" y="440" width="240" height="8" rx="4" fill="#305CDE"/>
  <rect x="48" y="460" width="160" height="8" rx="4" fill="#6E8DE8" opacity="0.5"/>
</svg>
