<svg xmlns="http://www.w3.org/2000/svg" viewBox="0 0 320 380" fill="none">
  <path d="M48 48 C48 48 52 8 120 4 C200 0 260 28 272 100 C280 150 268 220 240 280 C220 320 180 360 120 372 C80 378 52 360 40 300 C28 240 36 120 48 48 Z" stroke="#6E8DE8" stroke-width="5" stroke-linecap="round" stroke-linejoin="round"/>
  <path d="M100 140 C108 132 128 128 148 136" stroke="#6E8DE8" stroke-width="4" stroke-linecap="round"/>
  <ellipse cx="132" cy="168" rx="14" ry="10" stroke="#6E8DE8" stroke-width="4"/>
  <path d="M168 175 C176 195 172 215 160 228" stroke="#6E8DE8" stroke-width="4" stroke-linecap="round"/>
  <path d="M128 248 C148 262 178 258 192 242" stroke="#6E8DE8" stroke-width="4" stroke-linecap="round"/>
  <path d="M108 300 L108 340 M148 310 L148 350" stroke="#6E8DE8" stroke-width="4" stroke-linecap="round"/>
</svg>
